#!OML:ASF H:\Terrain\Patient Classification 1\Walking\liu\liu.ASF
:FULLY-SPECIFIED
:DEGREES
369
root 9.82617 17.1237 26.9497 6.47329 4.08334 4.12603
lowerback -7.47423 -4.22735 -5.59994
upperback -0.58717 -5.22286 1.53962
thorax 4.2209 -2.70959 4.13976
lowerneck -23.3009 -2.91041 -10.6694
upperneck 26.6908 -3.11182 9.55517
head 13.172 -1.1635 5.02357
rclavicle 3.41413e-014 7.95139e-015
rhumerus -49.6003 6.2453 -81.5603
rradius 27.0411
rwrist -14.2595
rhand -28.556 -22.7765
rfingers 7.12502
rthumb -1.92286 -52.7476
lclavicle 3.41413e-014 7.95139e-015
lhumerus -8.01022 -21.1302 83.3184
lradius 35.8836
lwrist 9.78891
lhand -15.4873 -25.2857
lfingers 7.12502
lthumb 10.6948 4.42206
rfemur -41.668 17.1933 7.51912
rtibia 25.2576
rfoot -27.1846 -16.4277
rtoes -21.2753
lfemur 14.2605 1.52566 -28.0267
ltibia 2.8625e-014
lfoot -14.2335 -2.38631
ltoes 3.15718
370
root 9.82025 17.0987 27.1551 6.36632 4.25263 4.66189
lowerback -7.10287 -4.40735 -6.2722
upperback -0.830886 -5.43567 1.55323
thorax 3.84753 -2.81207 4.53732
lowerneck -23.0416 -2.81631 -10.7873
upperneck 26.601 -2.95139 9.54939
head 13.0626 -1.10991 5.06248
rclavicle -6.68413e-015 -1.03368e-014
rhumerus -50.3774 5.84011 -80.7102
rradius 26.8551
rwrist -13.5005
rhand -28.3634 -21.7467
rfingers 7.12502
rthumb -1.7369 -51.7194
lclavicle -6.68413e-015 -1.03368e-014
lhumerus -8.45983 -20.6229 83.6255
lradius 36.6352
lwrist 10.1972
lhand -15.6912 -25.4838
lfingers 7.12502
lthumb 10.498 4.23409
rfemur -41.5306 16.7507 7.28455
rtibia 25.5269
rfoot -26.7926 -15.7561
rtoes -19.7581
lfemur 15.1943 1.6863 -28.338
ltibia 2.22639e-014
lfoot -14.2864 -3.03916
ltoes 3.30658
371
root 9.81224 17.0553 27.3594 6.33759 4.18386 4.90764
lowerback -7.07523 -4.44342 -6.50777
upperback -0.931836 -5.46669 1.49189
thorax 3.74637 -2.82492 4.60687
lowerneck -22.6604 -2.64649 -10.5823
upperneck 26.2848 -2.74818 9.3603
head 12.8223 -1.02651 4.96563
rclavicle 4.56459e-014 -2.38542e-015
rhumerus -50.9189 5.20159 -80.0018
rradius 26.4856
rwrist -12.6091
rhand -28.1932 -20.8902
rfingers 7.12502
rthumb -1.57247 -50.8641
lclavicle 4.56459e-014 -2.38542e-015
lhumerus -8.65096 -20.3338 83.6754
lradius 37.3651
lwrist 10.3836
lhand -16.1789 -25.6563
lfingers 7.12502
lthumb 10.0276 4.08481
rfemur -41.5006 16.5827 7.34292
rtibia 25.6752
rfoot -26.427 -15.241
rtoes -17.8955
lfemur 15.9296 2.09481 -28.3761
ltibia 7.31528e-014
lfoot -14.0674 -3.56668
ltoes 2.36052
372
root 9.79875 16.9918 27.5465 6.45899 3.7645 4.48739
lowerback -7.17993 -4.27012 -6.081
upperback -1.01344 -5.26731 1.58918
thorax 3.66387 -2.71602 4.49229
lowerneck -22.3188 -2.38686 -10.2956
upperneck 26.0473 -2.44798 9.18068
head 12.6115 -0.890367 4.87978
rclavicle -1.68967e-015 -1.11319e-014
rhumerus -51.0829 4.4745 -79.3414
rradius 25.7627
rwrist -12.0066
rhand -28.3773 -20.5694
rfingers 7.12502
rthumb -1.75033 -50.5419
lclavicle -1.68967e-015 -1.11319e-014
lhumerus -8.74056 -19.9586 83.7614
lradius 38.0493
lwrist 10.3636
lhand -16.2168 -25.8098
lfingers 7.12502
lthumb 9.99098 3.93304
rfemur -41.4272 14.0174 9.67594
rtibia 25.9856
rfoot -24.4994 -12.4287
rtoes -19.4029
lfemur 16.4725 2.87318 -27.7012
ltibia 0
lfoot -13.8159 -4.05149
ltoes 2.02494
373
root 9.78929 16.957 27.7282 6.58037 3.26747 3.88081
lowerback -7.13895 -4.12073 -5.52138
upperback -1.13719 -5.12456 1.81954
thorax 3.46607 -2.63156 4.44621
lowerneck -22.1999 -2.40852 -10.841
upperneck 25.9134 -2.48437 9.83964
head 12.5549 -0.87507 5.22402
rclavicle -1.14301e-014 2.8625e-014
rhumerus -51.1002 3.92345 -78.555
rradius 24.98
rwrist -11.4144
rhand -28.3397 -20.397
rfingers 7.12502
rthumb -1.71398 -50.3699
lclavicle -1.14301e-014 2.8625e-014
lhumerus -9.00946 -19.5261 83.9279
lradius 38.7226
lwrist 10.6918
lhand -16.0757 -26.0643
lfingers 7.12502
lthumb 10.1271 3.67201
rfemur -41.2995 12.1433 11.8998
rtibia 26.3026
rfoot -22.5117 -10.5243
rtoes -17.6294
lfemur 17.0215 3.7396 -26.8039
ltibia -9.54166e-015
lfoot -13.624 -4.63445
ltoes 3.7356
374
root 9.79091 16.9118 27.9223 6.65936 3.05455 4.31554
lowerback -7.12453 -4.21462 -5.939
upperback -1.20124 -5.21735 1.75942
thorax 3.43386 -2.68018 4.60884
lowerneck -22.4878 -2.43252 -10.7233
upperneck 26.3109 -2.42937 9.43472
head 12.7593 -0.893924 5.07371
rclavicle 4.00054e-015 0
rhumerus -51.0395 3.17255 -77.5121
rradius 24.2573
rwrist -10.0388
rhand -27.6468 -20.6305
rfingers 7.12502
rthumb -1.04478 -50.6077
lclavicle 4.00054e-015 0
lhumerus -9.27429 -19.0913 84.0035
lradius 39.3091
lwrist 11.329
lhand -15.8948 -26.0272
lfingers 7.12502
lthumb 10.3016 3.70052
rfemur -40.9861 9.94185 12.8738
rtibia 26.677
rfoot -20.4072 -8.46469
rtoes -19.5006
lfemur 17.7357 4.24956 -27.0802
ltibia 0
lfoot -13.5345 -5.00172
ltoes 3.96657
